# xmcd CD database file
#
# Track frame offsets:
#	150
#	21434
#	44076
#	67953
#	85585
#	101982
#	125872
#	145436
#	163703
#	186265
#	200102
#	216664
#	236324
#
# Disc length: 3428 seconds
#
# Revision: 3
# Processed by: cddbd v1.5.1PL2 Copyright (c) Steve Scherf et al.
# Submitted via: CDex 1.51
#
DISCID=d00d620d
DTITLE=Various Artist - ?????
DYEAR=2005
DGENRE=Alternative
TTITLE0=???
TTITLE1=???????
TTITLE2=??????????
TTITLE3=????????
TTITLE4=???????
TTITLE5=??
TTITLE6=???
TTITLE7=???
TTITLE8=??????
TTITLE9=???
TTITLE10=?????????
TTITLE11=??????
TTITLE12=???
EXTD=YEAR: 2005
EXTT0=
EXTT1=
EXTT2=
EXTT3=
EXTT4=
EXTT5=
EXTT6=
EXTT7=
EXTT8=
EXTT9=
EXTT10=
EXTT11=
EXTT12=
PLAYORDER=
